<?xml version="1.0"?>
<svg xmlns="http://www.w3.org/2000/svg" xmlns:xlink="http://www.w3.org/1999/xlink" version="1.1" id="Layer_1" x="0px" y="0px" viewBox="0 0 473.931 473.931" style="enable-background:new 0 0 473.931 473.931;" xml:space="preserve" width="512px" height="512px" class=""><g><circle style="fill:#FA5B78" cx="236.966" cy="236.966" r="236.966" data-original="#22A85B" class="" data-old_color="#fa5b78"/><g>
	<path style="fill:#FDFCFB" d="M293.051,282.757l0.015,0.034l18.316-0.812l27.955,43.73l4.962,42.312l-7.753,16.943l23.263,54.678   c8.019-4.868,15.682-10.256,23.042-16.015l-38.072-143.272L293.051,282.757z" data-original="#E2A976" class="" data-old_color="#FCFAF8"/>
	<path style="fill:#FDFCFB" d="M152.978,369.267l15.633-67.43l5.137-1.437l-36.25,6.331L94.247,426.134   c9.253,6.986,19.016,13.324,29.246,18.911l29.59-75.374L152.978,369.267z" data-original="#E2A976" class="" data-old_color="#FCFAF8"/>
</g><path style="fill:#0988EB" d="M339.333,325.705l-27.951-43.726l-18.316,0.812l-20.58,0.909l-74.491,9.931l-24.247,6.769  l-5.137,1.437l-15.633,67.43l0.109,0.404l7.431,27.382l19.162,25.639l4.591,45.294c16.954,3.843,34.566,5.946,52.677,5.946  c26.638,0,52.216-4.46,76.115-12.561l7.783-42.128l15.697-34.282l7.753-16.943L339.333,325.705z" data-original="#D78628" class="active-path" data-old_color="#0091FF"/><path style="fill:#B16227;" d="M255.693,342.364l-3.734,0.213c0.06,1.022,3.442,62.899,2.72,130.629  c1.25-0.094,2.499-0.176,3.742-0.284C259.128,405.147,255.749,343.389,255.693,342.364z" data-original="#B16227" class=""/><path style="fill:#000000" d="M252.49,89.507c0,0-11.794,146.988,75.004,176.458c0,0-5.1-7.992-12.688-42.922  c0,0,7.397,19.057,26.739,17.53c0,0-27.214-39.266-28.647-68.613c0,0-0.483,14.144,27.412,19.255c0,0-28.553-42.731-31.337-75.539  C308.976,115.677,286.073,78.457,252.49,89.507z" data-original="#EACF60" class="" data-old_color="#EACF60"/><path style="fill:#FFFFFF" d="M243.633,207.316c16.056-0.303,29.882,11.304,30.877,25.93l4.165,61.226  c1.003,14.612-8.389,53.335-24.43,53.634c-16.063,0.288-32.71-37.953-33.706-52.575l-4.165-61.215  C215.379,219.697,227.578,207.604,243.633,207.316z" data-original="#DBA375" class="" data-old_color="#ffffff"/><g>
	<path style="fill:#000000" d="M241.983,182.067c0,0-27.356,137.962-86.345,152.118c0,0,5.811-7.484,16.598-41.56   c0,0-9.126,18.293-28.247,14.978c0,0,30.731-36.579,34.866-65.668c0,0-0.819,14.125-29.073,16.632c0,0,32.381-39.902,38.177-72.313   C187.96,186.254,209.557,167.956,241.983,182.067z" data-original="#DFC65F" class="" data-old_color="#DFC65F"/>
	<path style="fill:#000000" d="M245.725,202.826c0,0,16.939,139.616,74.712,158.157c0,0-5.238-7.891-13.44-42.686   c0,0,7.73,18.922,27.049,17.055c0,0-27.902-38.783-29.855-68.1c0,0-0.24,14.151,27.749,18.769c0,0-29.305-42.215-32.662-74.966   C299.277,211.05,279.109,191.185,245.725,202.826z" data-original="#DFC65F" class="" data-old_color="#DFC65F"/>
</g><path style="fill:#FDFCFB" d="M298.012,218.422c1.22,24.681-19.315,44.119-45.859,43.423l0,0  c-26.552-0.703-49.043-21.272-50.259-45.953l-5.066-103.374c-1.212-24.677,19.322-44.119,45.866-43.423l0,0  c26.544,0.703,49.043,21.272,50.252,45.949L298.012,218.422z" data-original="#E2A976" class="" data-old_color="#FCFAF8"/><g>
	<path style="fill:#000000" d="M261.197,69.208c0,0-27.356,137.955-86.345,152.114c0,0,5.811-7.484,16.598-41.556   c0,0-9.126,18.286-28.247,14.978c0,0,30.731-36.583,34.866-65.672c0,0-0.819,14.125-29.073,16.636c0,0,32.381-39.906,38.177-72.317   C207.174,73.395,228.767,55.097,261.197,69.208z" data-original="#EED877" class="" data-old_color="#030303"/>
	<path style="fill:#000000" d="M252.228,88.126c0,0,26.039,40.86,52.048,49.204c0,0-13.01-1.848-10.237-35.289   c0,0-0.015-27.872-27.88-37.144C266.159,64.901,247.574,64.908,252.228,88.126z" data-original="#EED877" class="" data-old_color="#030303"/>
</g></g> </svg>
